<?xml version="1.0" standalone="no"?>
<!DOCTYPE svg PUBLIC "-//W3C//DTD SVG 20010904//EN"
 "http://www.w3.org/TR/2001/REC-SVG-20010904/DTD/svg10.dtd">
<svg version="1.0" xmlns="http://www.w3.org/2000/svg"
 width="1280.000000pt" height="996.000000pt" viewBox="0 0 1280.000000 996.000000"
 preserveAspectRatio="xMidYMid meet">
<g transform="translate(0.000000,996.000000) scale(0.100000,-0.100000)"
fill="#009688" stroke="none">
<path d="M10690 9944 c-23 -10 -1004 -984 -2901 -2881 -1577 -1576 -2871
-2864 -2877 -2862 -8 3 -767 720 -2375 2244 -191 182 -366 341 -387 353 -49
30 -109 31 -181 6 -68 -24 -37 6 -1095 -1074 -565 -577 -843 -868 -855 -895
-23 -49 -24 -83 -3 -134 12 -31 299 -308 1352 -1307 1172 -1112 1466 -1396
2382 -2310 1071 -1069 1086 -1083 1160 -1084 14 0 37 8 51 18 79 52 2101 2053
4767 4716 2383 2382 3028 3031 3047 3070 27 54 31 99 14 161 -9 35 -140 170
-967 998 -647 647 -970 964 -998 977 -48 24 -86 25 -134 4z"/>
</g>
</svg>
