<?xml version="1.0" encoding="UTF-8" standalone="no"?>
<!-- Created with Inkscape (http://www.inkscape.org/) -->

<svg
   xmlns:dc="http://purl.org/dc/elements/1.1/"
   xmlns:cc="http://creativecommons.org/ns#"
   xmlns:rdf="http://www.w3.org/1999/02/22-rdf-syntax-ns#"
   xmlns:svg="http://www.w3.org/2000/svg"
   xmlns="http://www.w3.org/2000/svg"
   xmlns:sodipodi="http://sodipodi.sourceforge.net/DTD/sodipodi-0.dtd"
   xmlns:inkscape="http://www.inkscape.org/namespaces/inkscape"
   width="1000"
   height="167.26782"
   id="svg4323"
   version="1.1"
   inkscape:version="0.48.2 r9819"
   sodipodi:docname="A.svg">
  <defs
     id="defs4325" />
  <sodipodi:namedview
     id="base"
     pagecolor="#ffffff"
     bordercolor="#666666"
     borderopacity="1.0"
     inkscape:pageopacity="0.0"
     inkscape:pageshadow="2"
     inkscape:zoom="0.28334961"
     inkscape:cx="576.42176"
     inkscape:cy="444.9652"
     inkscape:document-units="px"
     inkscape:current-layer="layer1"
     showgrid="false"
     fit-margin-left="0.5"
     fit-margin-bottom="0.5"
     fit-margin-top="0.5"
     fit-margin-right="0.5"
     inkscape:window-width="1920"
     inkscape:window-height="1028"
     inkscape:window-x="-8"
     inkscape:window-y="-8"
     inkscape:window-maximized="1">
    <inkscape:grid
       type="xygrid"
       id="grid4342"
       empspacing="5"
       visible="true"
       enabled="true"
       snapvisiblegridlinesonly="true" />
  </sodipodi:namedview>
  <metadata
     id="metadata4328">
    <rdf:RDF>
      <cc:Work
         rdf:about="">
        <dc:format>image/svg+xml</dc:format>
        <dc:type
           rdf:resource="http://purl.org/dc/dcmitype/StillImage" />
        <dc:title></dc:title>
      </cc:Work>
    </rdf:RDF>
  </metadata>
  <g
     inkscape:label="Layer 1"
     inkscape:groupmode="layer"
     id="layer1"
     transform="translate(-142.44552,-1924.3827)">
    <g
       id="g4434"
       transform="matrix(5.4434142,0,0,5.4434142,271.54359,1981.7379)">
    <g
   id="g4436">
        <path
   id="path4438"
   d="m 127.8,19.7 h 2.8 V 5.3 h -2.8 V 19.7 z M 127.7,3.4 h 3.1 V 0.5 h -3.1 v 2.9 z m -8.1,12 h -0.1 L 115.9,5.3 h -2.5 l -4.1,10.1 h -0.1 L 106.4,0.5 h -3 l 3.8,19.2 h 2.8 l 4.5,-10.6 h 0.1 l 3.9,10.6 h 2.8 l 4.8,-19.2 h -2.9 l -3.6,14.9 z M 83.8,5.1 c -4,0 -7.1,3.2 -7.1,7.5 0,4.5 3,7.4 7.2,7.4 2.5,0 4.8,-0.9 6.1,-2.5 l -1.7,-1.6 c -1.1,1.1 -2.5,1.7 -4.2,1.7 -2.7,0 -4.6,-2.1 -4.6,-5.1 0,-2.8 1.6,-5.2 4.2,-5.2 3,0 3.8,2.4 3.9,3.9 h -4.8 l -1,2.2 h 8.6 c 0,-0.6 0,-0.7 0,-1 0.2,-4.1 -2,-7.3 -6.6,-7.3 z M 73.1,5.5 V 5.1 c 0,-1.8 0.9,-2.8 2.6,-2.8 0.6,0 1.7,0.2 2.5,0.4 l 0.9,-2 C 77.9,0.2 76.6,0 75.6,0 72.8,0 70.3,1.4 70.3,5.1 v 0.4 h -1.9 v 2.3 h 1.9 v 11.9 h 2.8 V 7.8 h 2.8 l 1,-2.3 H 73.1 z M 47.9,5.1 C 46,5.1 44.3,5.8 43.5,7.2 H 43.4 V 5.3 h -2.7 v 14.4 h 2.8 v -7.8 c 0,-2.8 1.5,-4.5 3.8,-4.5 2.2,0 3.5,1.1 3.5,3.8 v 8.5 h 2.8 v -9 C 53.5,7 51.3,5.1 47.9,5.1 z m -17.3,0 c -1.7,0 -3.2,0.2 -4.4,0.7 L 26.7,8 c 1.4,-0.4 2.5,-0.6 3.6,-0.6 2.4,0 4.3,1.1 4.3,3.4 v 0.4 c -0.8,-0.3 -1.9,-0.6 -3.7,-0.6 -3.8,0 -6.3,1.9 -6.3,4.9 0,3.2 2.5,4.6 5.2,4.6 2.3,0 3.9,-0.9 4.7,-1.9 h 0.1 v 1.7 h 2.7 v -9 c 0,-4.1 -2.6,-5.8 -6.7,-5.8 z m 4,9.1 c 0,2.1 -1.8,3.5 -4.4,3.5 -1.5,0 -2.8,-0.7 -2.8,-2.4 0,-1.6 1.4,-2.6 3.4,-2.6 1.9,0 3.1,0.3 3.8,0.8 v 0.7 z M 0,3.1 h 6.3 v 16.6 h 3 V 3.1 h 6.3 V 0.5 H 0 v 2.6 z m 22.3,2.1 c -1.6,0 -3.1,0.6 -3.9,1.7 H 18.3 V 5.3 h -2.7 v 14.4 h 2.8 v -7.9 c 0,-3 1.5,-4.3 3.8,-4.3 0.8,0 1.3,0.1 2,0.2 l 0.6,-2.2 c -1,-0.2 -2,-0.3 -2.5,-0.3 z M 96.1,6.9 H 96 V 5.3 h -2.7 v 14.4 h 2.8 v -7.9 c 0,-3 1.7,-4.3 3.9,-4.3 0.8,0 1.3,0.1 2,0.2 l 0.6,-2.2 c -0.9,-0.4 -1.9,-0.4 -2.4,-0.4 -1.6,0.1 -3.3,0.7 -4.1,1.8 z m 55.2,6.6 h 8.6 c 0,-0.6 0,-0.7 0,-1 0,-4.1 -2.2,-7.4 -6.8,-7.4 -4,0 -7.1,3.2 -7.1,7.5 0,4.5 3,7.4 7.2,7.4 2.5,0 4.8,-0.9 6.1,-2.5 l -1.7,-1.6 c -1.1,1.1 -2.5,1.7 -4.2,1.7 -2.7,0 -4.6,-2.1 -4.6,-5.1 0,-2.8 1.6,-5.2 4.2,-5.2 3,0 3.8,2.4 3.9,3.9 h -4.8 l -0.8,2.3 z M 62.1,11.4 c -2.2,-0.3 -3.4,-0.7 -3.4,-2.1 0,-1.3 1.3,-2 2.8,-2 1.3,0 2.9,0.5 3.9,1.2 l 1.4,-1.9 c -1.3,-1 -3.3,-1.5 -5.2,-1.5 -3.3,0 -5.7,1.9 -5.7,4.4 0,2.9 1.9,3.8 5.1,4.3 1.8,0.3 3.4,0.5 3.4,2 0,1.3 -1.3,1.9 -3,1.9 -1.7,0 -3.1,-0.4 -4.6,-1.5 l -1.2,2.1 c 1.1,0.9 3.3,1.7 5.7,1.7 3.4,0 5.8,-1.9 5.8,-4.5 0.1,-3.1 -2.5,-3.8 -5,-4.1 z m 77.4,0 c -2.2,-0.3 -3.4,-0.7 -3.4,-2.1 0,-1.3 1.3,-2 2.8,-2 1.3,0 2.9,0.5 3.9,1.2 l 1.4,-1.9 c -1.3,-1 -3.3,-1.5 -5.2,-1.5 -3.3,0 -5.7,1.9 -5.7,4.4 0,2.9 1.9,3.8 5.1,4.3 1.8,0.3 3.4,0.5 3.4,2 0,1.3 -1.3,1.9 -3,1.9 -1.7,0 -3.1,-0.4 -4.6,-1.5 l -1.2,2.1 c 1.1,0.9 3.3,1.7 5.7,1.7 3.4,0 5.8,-1.9 5.8,-4.5 0.1,-3.1 -2.4,-3.8 -5,-4.1 z"
   inkscape:connector-curvature="0"
   style="fill:#232f49" />

    </g>

</g>
    <path
       id="path4459"
       d="m 158.26095,1924.8827 22.03265,36.5419 -37.34808,36.5422 h 64.7546 l 6.98597,-14.5094 h -37.0794 l 22.03269,-22.3015 -13.43455,-21.4955 h 60.72418 l -52.66344,124.9417 h 18.00233 l 59.11202,-139.7194 H 158.26095 z"
       inkscape:connector-curvature="0"
       style="fill:#00c6ff" />
  </g>
</svg>