<svg xmlns="http://www.w3.org/2000/svg" width="512" height="512" viewBox="0 0 512 512" version="1.1"><path d="M 0 256.002 L 0 512.004 256.250 511.752 L 512.500 511.500 512.752 255.750 L 513.004 0 256.502 0 L 0 0 0 256.002 M 0.492 256.500 C 0.492 397.300, 0.608 454.751, 0.750 384.170 C 0.892 313.588, 0.892 198.388, 0.750 128.170 C 0.608 57.951, 0.492 115.700, 0.492 256.500 M 27.001 22.833 C 25.387 23.371, 25.636 486.995, 27.250 487.018 C 43.724 487.253, 486.465 486.869, 486.714 486.619 C 487.363 485.970, 487.116 23.782, 486.466 23.133 C 485.834 22.501, 28.894 22.203, 27.001 22.833 M 130.500 25.976 C 51.619 26.638, 29.902 27.235, 31.368 28.701 C 32.948 30.282, 325.910 31.272, 441.750 30.089 C 477.567 29.723, 484.030 29.327, 481.250 27.671 C 478.540 26.056, 251.629 24.960, 130.500 25.976 M 224.500 35 C 220.100 35.348, 237.425 35.637, 263 35.641 C 293.708 35.647, 304.576 35.412, 295 34.950 C 277.373 34.101, 235.490 34.130, 224.500 35 M 188.090 116.088 C 184.673 116.544, 182.906 117.526, 180.211 120.467 L 176.738 124.257 177.505 231.878 C 177.928 291.070, 178.549 347.340, 178.887 356.922 L 179.500 374.345 183.907 376.672 C 189.759 379.763, 201.209 379.954, 206.889 377.057 L 210.698 375.113 211.429 327.813 C 211.852 300.385, 212.561 280.029, 213.115 279.361 C 213.764 278.579, 221.522 278.058, 237.285 277.738 C 250.278 277.474, 263.142 276.706, 266.500 275.995 C 281.834 272.746, 291.897 269.702, 296.316 266.973 C 298.965 265.338, 301.526 264, 302.006 264 C 304.378 264, 318.791 250.552, 324.053 243.428 C 332.774 231.623, 335.623 225.508, 338.229 213 C 339.887 205.042, 340.119 201.065, 339.662 188.500 C 339.064 172.092, 338.209 168.337, 332.487 156.975 C 326.371 144.829, 320.467 138.311, 307.652 129.557 C 300.674 124.790, 282.992 118, 277.558 118 C 276.079 118, 274.023 117.547, 272.989 116.994 C 270.932 115.893, 195.573 115.089, 188.090 116.088 M 214.510 143.462 C 213.495 144.277, 213.105 155.774, 212.695 197 C 212.408 225.875, 212.485 250.597, 212.867 251.937 L 213.560 254.374 234.530 254.126 C 256.882 253.862, 263.437 252.933, 273.053 248.664 C 283.300 244.116, 294.406 233.082, 297.596 224.282 C 303.189 208.848, 304.569 199.932, 303.007 189.318 C 300.854 174.689, 297.862 166.896, 291.579 159.541 C 285.981 152.989, 281.249 149.736, 272.500 146.428 C 266.089 144.003, 263.986 143.747, 247.500 143.375 C 237.600 143.151, 226.418 142.846, 222.652 142.696 C 218.885 142.546, 215.221 142.891, 214.510 143.462 M 198.500 370 C 198.149 370.567, 198.990 371, 200.441 371 C 201.848 371, 203 370.550, 203 370 C 203 369.450, 202.127 369, 201.059 369 C 199.991 369, 198.840 369.450, 198.500 370 M 227.250 481.749 C 242.512 481.905, 267.487 481.905, 282.750 481.749 C 298.012 481.594, 285.525 481.467, 255 481.467 C 224.475 481.467, 211.987 481.594, 227.250 481.749" stroke="none" fill="#eeecec" fill-rule="evenodd"/><path d="M 27.001 22.833 C 25.387 23.371, 25.636 486.995, 27.250 487.018 C 43.724 487.253, 486.465 486.869, 486.714 486.619 C 487.363 485.970, 487.116 23.782, 486.466 23.133 C 485.834 22.501, 28.894 22.203, 27.001 22.833 M 130.500 25.976 C 51.619 26.638, 29.902 27.235, 31.368 28.701 C 32.948 30.282, 325.910 31.272, 441.750 30.089 C 477.567 29.723, 484.030 29.327, 481.250 27.671 C 478.540 26.056, 251.629 24.960, 130.500 25.976 M 224.500 35 C 220.100 35.348, 237.425 35.637, 263 35.641 C 293.708 35.647, 304.576 35.412, 295 34.950 C 277.373 34.101, 235.490 34.130, 224.500 35 M 188.090 116.088 C 184.673 116.544, 182.906 117.526, 180.211 120.467 L 176.738 124.257 177.505 231.878 C 177.928 291.070, 178.549 347.340, 178.887 356.922 L 179.500 374.345 183.907 376.672 C 189.759 379.763, 201.209 379.954, 206.889 377.057 L 210.698 375.113 211.429 327.813 C 211.852 300.385, 212.561 280.029, 213.115 279.361 C 213.764 278.579, 221.522 278.058, 237.285 277.738 C 250.278 277.474, 263.142 276.706, 266.500 275.995 C 281.834 272.746, 291.897 269.702, 296.316 266.973 C 298.965 265.338, 301.526 264, 302.006 264 C 304.378 264, 318.791 250.552, 324.053 243.428 C 332.774 231.623, 335.623 225.508, 338.229 213 C 339.887 205.042, 340.119 201.065, 339.662 188.500 C 339.064 172.092, 338.209 168.337, 332.487 156.975 C 326.371 144.829, 320.467 138.311, 307.652 129.557 C 300.674 124.790, 282.992 118, 277.558 118 C 276.079 118, 274.023 117.547, 272.989 116.994 C 270.932 115.893, 195.573 115.089, 188.090 116.088 M 214.510 143.462 C 213.495 144.277, 213.105 155.774, 212.695 197 C 212.408 225.875, 212.485 250.597, 212.867 251.937 L 213.560 254.374 234.530 254.126 C 256.882 253.862, 263.437 252.933, 273.053 248.664 C 283.300 244.116, 294.406 233.082, 297.596 224.282 C 303.189 208.848, 304.569 199.932, 303.007 189.318 C 300.854 174.689, 297.862 166.896, 291.579 159.541 C 285.981 152.989, 281.249 149.736, 272.500 146.428 C 266.089 144.003, 263.986 143.747, 247.500 143.375 C 237.600 143.151, 226.418 142.846, 222.652 142.696 C 218.885 142.546, 215.221 142.891, 214.510 143.462 M 198.500 370 C 198.149 370.567, 198.990 371, 200.441 371 C 201.848 371, 203 370.550, 203 370 C 203 369.450, 202.127 369, 201.059 369 C 199.991 369, 198.840 369.450, 198.500 370 M 227.250 481.749 C 242.512 481.905, 267.487 481.905, 282.750 481.749 C 298.012 481.594, 285.525 481.467, 255 481.467 C 224.475 481.467, 211.987 481.594, 227.250 481.749" stroke="none" fill="#5f1818" fill-rule="evenodd"/></svg>